<svg xmlns="http://www.w3.org/2000/svg" viewBox="-5 -7 110 110">
  <defs>
    <filter id="streaks" x="0" y="0" width="100%" height="100%">
      <feTurbulence type="fractalNoise" baseFrequency="0.22 0.018" numOctaves="3" seed="11" result="n"/>
      <feColorMatrix in="n" type="matrix" values="0 0 0 0 0  0 0 0 0 0  0 0 0 0 0  2.4 0 0 0 -1.05" result="a"/>
      <feFlood flood-color="#4a4440" result="c"/>
      <feComposite in="c" in2="a" operator="in"/>
    </filter>
    <pattern id="wood" patternUnits="userSpaceOnUse" width="100" height="100">
      <rect width="100" height="100" fill="#2b2724"/>
      <rect width="100" height="100" filter="url(#streaks)"/>
    </pattern>
    <linearGradient id="shade" x1="0" y1="0" x2="1" y2="0">
      <stop offset="0" stop-color="#fff" stop-opacity="0.38"/>
      <stop offset="0.35" stop-color="#fff" stop-opacity="0.06"/>
      <stop offset="0.65" stop-color="#000" stop-opacity="0"/>
      <stop offset="1" stop-color="#000" stop-opacity="0.34"/>
    </linearGradient>
  </defs>
  <rect x="17" y="82" width="66" height="11" rx="4.5" fill="url(#wood)"/>
  <rect x="17" y="82" width="66" height="11" rx="4.5" fill="url(#shade)" stroke="#050404" stroke-width="2.8" stroke-linejoin="round"/>
  <rect x="23" y="75" width="54" height="9" rx="3" fill="url(#wood)"/>
  <rect x="23" y="75" width="54" height="9" rx="3" fill="url(#shade)" stroke="#050404" stroke-width="2.8" stroke-linejoin="round"/>
  <path d="M29 75 C36 63 39 53 38 45 L62 45 C61 53 64 63 71 75 Z" fill="url(#wood)"/>
  <path d="M29 75 C36 63 39 53 38 45 L62 45 C61 53 64 63 71 75 Z" fill="url(#shade)" stroke="#050404" stroke-width="2.8" stroke-linejoin="round"/>
  <rect x="30" y="39" width="40" height="7.5" rx="3.7" fill="url(#wood)"/>
  <rect x="30" y="39" width="40" height="7.5" rx="3.7" fill="url(#shade)" stroke="#050404" stroke-width="2.8" stroke-linejoin="round"/>
  <path d="M34 40 C27 31 32 22 41 24 C44 19 56 19 59 24 C68 22 73 31 66 40 Z" fill="url(#wood)"/>
  <path d="M34 40 C27 31 32 22 41 24 C44 19 56 19 59 24 C68 22 73 31 66 40 Z" fill="url(#shade)" stroke="#050404" stroke-width="2.8" stroke-linejoin="round"/>
  <path d="M47 3 H53 V8 H58 V14 H53 V21 H47 V14 H42 V8 H47 Z" fill="url(#wood)"/>
  <path d="M47 3 H53 V8 H58 V14 H53 V21 H47 V14 H42 V8 H47 Z" fill="url(#shade)" stroke="#050404" stroke-width="2.8" stroke-linejoin="round"/>
</svg>
